# MagicaVoxel @ Ephtracy

# group
o 

# material
mtllib Enemy Ball.mtl
usemtl palette

# normals
vn -1 0 0
vn 1 0 0
vn 0 0 1
vn 0 0 -1
vn 0 -1 0
vn 0 1 0

# texcoords
vt 0.0175781 0.5
vt 0.841797 0.5
vt 0.857422 0.5

# verts
v -0.1 0 0.1
v -0.1 0 -0.2
v -0.1 0.1 0
v -0.1 0.1 -0.1
v -0.1 0.2 0
v -0.1 0.2 -0.1
v -0.1 0.3 0.1
v -0.1 0.3 -0.2
v 0.2 0 0.1
v 0.2 0 -0.2
v 0.2 0.1 0
v 0.2 0.1 -0.1
v 0.2 0.2 0
v 0.2 0.2 -0.1
v 0.2 0.3 0.1
v 0.2 0.3 -0.2
v -0.1 0 0.1
v -0.1 0.3 0.1
v 0 0.1 0.1
v 0 0.2 0.1
v 0.1 0 0.1
v 0.1 0.1 0.1
v 0.1 0.2 0.1
v 0.1 0.3 0.1
v 0.2 0 0.1
v 0.2 0.3 0.1
v -0.1 0 -0.2
v -0.1 0.3 -0.2
v 0 0.1 -0.2
v 0 0.2 -0.2
v 0 0.3 -0.2
v 0.1 0 -0.2
v 0.1 0.1 -0.2
v 0.1 0.2 -0.2
v 0.2 0 -0.2
v 0.2 0.3 -0.2
v -0.1 0 0.1
v 0.1 0 0.1
v 0.2 0 0.1
v 0 0 0
v 0.1 0 0
v 0 0 -0.1
v 0.1 0 -0.1
v -0.1 0 -0.2
v 0.1 0 -0.2
v 0.2 0 -0.2
v -0.1 0.3 0.1
v 0.1 0.3 0.1
v 0.2 0.3 0.1
v 0 0.3 0
v 0.1 0.3 0
v 0 0.3 -0.1
v 0.1 0.3 -0.1
v -0.1 0.3 -0.2
v 0 0.3 -0.2
v 0.2 0.3 -0.2

# faces
f 3/3/1 2/3/1 1/3/1
f 4/3/1 2/3/1 3/3/1
f 5/3/1 3/3/1 1/3/1
f 5/2/1 4/2/1 3/2/1
f 6/3/1 2/3/1 4/3/1
f 6/2/1 4/2/1 5/2/1
f 7/3/1 5/3/1 1/3/1
f 7/3/1 6/3/1 5/3/1
f 8/3/1 2/3/1 6/3/1
f 8/3/1 6/3/1 7/3/1
f 9/1/2 10/1/2 11/1/2
f 11/1/2 10/1/2 12/1/2
f 9/1/2 11/1/2 13/1/2
f 11/2/2 12/2/2 13/2/2
f 12/1/2 10/1/2 14/1/2
f 13/2/2 12/2/2 14/2/2
f 9/1/2 13/1/2 15/1/2
f 13/1/2 14/1/2 15/1/2
f 14/1/2 10/1/2 16/1/2
f 15/1/2 14/1/2 16/1/2
f 19/3/3 18/3/3 17/3/3
f 20/3/3 18/3/3 19/3/3
f 21/3/3 19/3/3 17/3/3
f 22/2/3 20/2/3 19/2/3
f 22/3/3 19/3/3 21/3/3
f 23/3/3 18/3/3 20/3/3
f 23/2/3 20/2/3 22/2/3
f 24/3/3 18/3/3 23/3/3
f 25/1/3 22/1/3 21/1/3
f 25/1/3 23/1/3 22/1/3
f 25/1/3 24/1/3 23/1/3
f 26/1/3 24/1/3 25/1/3
f 27/3/4 28/3/4 29/3/4
f 29/3/4 28/3/4 30/3/4
f 30/3/4 28/3/4 31/3/4
f 27/3/4 29/3/4 32/3/4
f 29/2/4 30/2/4 33/2/4
f 32/3/4 29/3/4 33/3/4
f 30/1/4 31/1/4 34/1/4
f 33/2/4 30/2/4 34/2/4
f 32/1/4 33/1/4 35/1/4
f 33/1/4 34/1/4 35/1/4
f 34/1/4 31/1/4 36/1/4
f 35/1/4 34/1/4 36/1/4
f 40/3/5 38/3/5 37/3/5
f 41/1/5 39/1/5 38/1/5
f 41/3/5 38/3/5 40/3/5
f 42/3/5 40/3/5 37/3/5
f 42/2/5 41/2/5 40/2/5
f 43/1/5 39/1/5 41/1/5
f 43/2/5 41/2/5 42/2/5
f 44/3/5 42/3/5 37/3/5
f 44/3/5 43/3/5 42/3/5
f 45/1/5 39/1/5 43/1/5
f 45/3/5 43/3/5 44/3/5
f 46/1/5 39/1/5 45/1/5
f 47/3/6 48/3/6 50/3/6
f 48/1/6 49/1/6 51/1/6
f 50/3/6 48/3/6 51/3/6
f 47/3/6 50/3/6 52/3/6
f 50/2/6 51/2/6 52/2/6
f 51/1/6 49/1/6 53/1/6
f 52/2/6 51/2/6 53/2/6
f 47/3/6 52/3/6 54/3/6
f 52/1/6 53/1/6 55/1/6
f 54/3/6 52/3/6 55/3/6
f 53/1/6 49/1/6 56/1/6
f 55/1/6 53/1/6 56/1/6
